<?xml version="1.0" encoding="utf-8"?>
<!-- Generator: Adobe Illustrator 19.0.0, SVG Export Plug-In . SVG Version: 6.00 Build 0)  -->
<svg version="1.1" id="Layer_1" xmlns="http://www.w3.org/2000/svg" xmlns:xlink="http://www.w3.org/1999/xlink" x="0px" y="0px"
	 viewBox="142 56 584 189" style="enable-background:new 142 56 584 189;" xml:space="preserve">
<style type="text/css">
	.st0{fill:none;stroke:#FFFFFF;stroke-opacity:0;}
	.st1{fill:#0B8ED8;}
	.st2{font-family:'Verdana';}
	.st3{font-size:26.8998px;}
</style>
<title>Artboard</title>
<desc>Created with Sketch.</desc>
<g>
	<polygon id="Fill-9" points="377.3,201.7 375.5,201.7 373.5,201.7 371.7,201.5 369.8,201.2 368.2,201 366.5,200.7 364.8,200.2 
		363.3,199.7 361.8,199.2 360.5,198.7 359,198 357.8,197.2 356.7,196.4 355.5,195.5 354.3,194.5 353.3,193.5 352.5,192.5 
		351.5,191.4 350.7,190.2 350,188.9 349.2,187.5 348.5,186.2 348,184.7 347.5,183 347,181.5 346.7,179.9 346.2,178 346,176.2 
		345.7,174.4 345.7,172.5 345.5,170.5 345.5,168.4 345.5,148.9 345.5,146.7 345.7,144.7 345.7,142.9 346,141 346.2,139.2 
		346.7,137.4 347,135.7 347.5,134.2 348,132.5 348.5,131 349.2,129.7 350,128.4 350.7,127 351.5,125.9 352.5,124.7 353.3,123.7 
		354.3,122.7 355.5,121.7 356.7,120.9 357.8,120 359,119.2 360.5,118.5 361.8,118 363.3,117.5 364.8,117 366.5,116.5 368.2,116.2 
		369.8,116 371.7,115.7 373.5,115.5 375.5,115.4 377.3,115.4 379.2,115.4 381.2,115.5 383,115.7 384.7,115.9 386.2,116.2 
		387.8,116.5 389.5,116.9 391,117.2 392.3,117.7 393.7,118.4 395,118.9 396.2,119.5 397.3,120.4 398.5,121.2 399.5,122 400.5,122.9 
		401.5,123.9 402.5,124.9 403.2,126 404,127.2 404.7,128.4 405.3,129.7 406,131 406.5,132.4 407,133.7 407.3,135.4 407.7,136.9 
		408,138.5 408.3,140.2 408.5,142 408.7,143.9 408.7,145.7 394.2,145.7 394,143.5 393.8,141.5 393.5,139.7 393,138 392.7,137.2 
		392.5,136.5 392,135.7 391.7,135 391.2,134.5 390.8,133.7 390.5,133.2 389.8,132.7 389.3,132.2 388.8,131.7 388.2,131.2 
		387.7,130.9 387,130.5 386.2,130.2 385.5,129.9 384.8,129.5 384,129.4 383.2,129.2 382.3,129 381.5,128.9 379.5,128.7 377.5,128.5 
		375.3,128.7 374.2,128.7 373.3,128.9 372.3,129 371.5,129.2 370.5,129.5 369.7,129.7 369,130 368.2,130.4 367.5,130.9 366.8,131.2 
		366.2,131.7 365.5,132.2 365,132.7 364.5,133.5 364,134 363.5,134.7 363.2,135.5 362.7,136.2 362.3,137 362,138 361.7,138.9 
		361.5,139.7 361.2,140.9 361,141.9 360.7,144 360.7,146.5 360.5,149.2 360.5,168 360.7,170.7 360.7,173.2 361,175.4 361.2,176.5 
		361.5,177.4 361.7,178.4 362,179.2 362.3,180.2 362.7,181 363.2,181.7 363.5,182.5 364,183.2 364.5,183.7 365,184.5 365.5,185 
		366.2,185.5 366.8,186 367.5,186.4 368.2,186.9 369,187.2 369.7,187.5 370.5,187.7 371.5,188 372.3,188.2 373.3,188.4 374.2,188.5 
		375.3,188.5 377.5,188.7 379.5,188.5 381.5,188.4 382.3,188.2 383.2,188 384,187.9 384.8,187.7 385.5,187.4 386.2,187 387,186.7 
		387.7,186.4 388.2,186 388.8,185.5 389.3,185 389.8,184.5 390.5,184 390.8,183.5 391.2,182.9 391.7,182.2 392,181.5 392.5,180.7 
		392.7,180 393,179.2 393.5,177.5 393.8,175.7 394,173.7 394.2,171.7 408.7,171.7 408.7,173.5 408.5,175.4 408.3,177 408,178.7 
		407.7,180.4 407.3,182 407,183.5 406.5,185 406,186.4 405.3,187.7 404.7,188.9 404,190 403.2,191.2 402.5,192.4 401.5,193.4 
		400.5,194.4 399.5,195.2 398.5,196 397.3,196.9 396.2,197.7 395,198.4 393.7,198.9 392.3,199.5 391,200 389.5,200.4 387.8,200.7 
		386.2,201 384.7,201.4 383,201.5 381.2,201.7 379.2,201.7 	"/>
	<polygon id="Stroke-10" class="st0" points="345.5,168.4 345.5,148.9 345.5,146.7 345.7,144.7 345.7,142.9 346,141 346.2,139.2 
		346.7,137.4 347,135.7 347.5,134.2 348,132.5 348.5,131 349.2,129.7 350,128.4 350.7,127 351.5,125.9 352.5,124.7 353.3,123.7 
		354.3,122.7 355.5,121.7 356.7,120.9 357.8,120 359,119.2 360.5,118.5 361.8,118 363.3,117.5 364.8,117 366.5,116.5 368.2,116.2 
		369.8,116 371.7,115.7 373.5,115.5 375.5,115.4 377.3,115.4 379.2,115.4 381.2,115.5 383,115.7 384.7,115.9 386.2,116.2 
		387.8,116.5 389.5,116.9 391,117.2 392.3,117.7 393.7,118.4 395,118.9 396.2,119.5 397.3,120.4 398.5,121.2 399.5,122 400.5,122.9 
		401.5,123.9 402.5,124.9 403.2,126 404,127.2 404.7,128.4 405.3,129.7 406,131 406.5,132.4 407,133.7 407.3,135.4 407.7,136.9 
		408,138.5 408.3,140.2 408.5,142 408.7,143.9 408.7,145.7 394.2,145.7 394,143.5 393.8,141.5 393.5,139.7 393,138 392.7,137.2 
		392.5,136.5 392,135.7 391.7,135 391.2,134.5 390.8,133.7 390.5,133.2 389.8,132.7 389.3,132.2 388.8,131.7 388.2,131.2 
		387.7,130.9 387,130.5 386.2,130.2 385.5,129.9 384.8,129.5 384,129.4 383.2,129.2 382.3,129 381.5,128.9 379.5,128.7 377.5,128.5 
		375.3,128.7 374.2,128.7 373.3,128.9 372.3,129 371.5,129.2 370.5,129.5 369.7,129.7 369,130 368.2,130.4 367.5,130.9 366.8,131.2 
		366.2,131.7 365.5,132.2 365,132.7 364.5,133.5 364,134 363.5,134.7 363.2,135.5 362.7,136.2 362.3,137 362,138 361.7,138.9 
		361.5,139.7 361.2,140.9 361,141.9 360.7,144 360.7,146.5 360.5,149.2 360.5,168 360.7,170.7 360.7,173.2 361,175.4 361.2,176.5 
		361.5,177.4 361.7,178.4 362,179.2 362.3,180.2 362.7,181 363.2,181.7 363.5,182.5 364,183.2 364.5,183.7 365,184.5 365.5,185 
		366.2,185.5 366.8,186 367.5,186.4 368.2,186.9 369,187.2 369.7,187.5 370.5,187.7 371.5,188 372.3,188.2 373.3,188.4 374.2,188.5 
		375.3,188.5 377.5,188.7 379.5,188.5 381.5,188.4 382.3,188.2 383.2,188 384,187.9 384.8,187.7 385.5,187.4 386.2,187 387,186.7 
		387.7,186.4 388.2,186 388.8,185.5 389.3,185 389.8,184.5 390.5,184 390.8,183.5 391.2,182.9 391.7,182.2 392,181.5 392.5,180.7 
		392.7,180 393,179.2 393.5,177.5 393.8,175.7 394,173.7 394.2,171.7 408.7,171.7 408.7,173.5 408.5,175.4 408.3,177 408,178.7 
		407.7,180.4 407.3,182 407,183.5 406.5,185 406,186.4 405.3,187.7 404.7,188.9 404,190 403.2,191.2 402.5,192.4 401.5,193.4 
		400.5,194.4 399.5,195.2 398.5,196 397.3,196.9 396.2,197.7 395,198.4 393.7,198.9 392.3,199.5 391,200 389.5,200.4 387.8,200.7 
		386.2,201 384.7,201.4 383,201.5 381.2,201.7 379.2,201.7 377.3,201.7 375.5,201.7 373.5,201.7 371.7,201.5 369.8,201.2 368.2,201 
		366.5,200.7 364.8,200.2 363.3,199.7 361.8,199.2 360.5,198.7 359,198 357.8,197.2 356.7,196.4 355.5,195.5 354.3,194.5 
		353.3,193.5 352.5,192.5 351.5,191.4 350.7,190.2 350,188.9 349.2,187.5 348.5,186.2 348,184.7 347.5,183 347,181.5 346.7,179.9 
		346.2,178 346,176.2 345.7,174.4 345.7,172.5 345.5,170.5 	"/>
	<polygon id="Fill-11" points="420,200.4 420,136.7 432.7,136.7 433.2,148.4 433.7,146.7 434.3,145.2 435,143.9 435.8,142.5 
		436.7,141.4 437.5,140.4 438.5,139.5 439.5,138.5 440.5,137.7 441.7,137.2 443,136.7 444.3,136.2 445.7,135.9 447.2,135.7 
		448.8,135.5 450.5,135.5 455,135.5 455,149.4 451.7,149.4 449.8,149.5 448.2,149.5 446.5,149.9 445.2,150.2 443.8,150.7 
		442.5,151.2 441.3,152 440.2,152.7 439.3,153.7 438.5,154.7 437.7,155.9 437,157.2 436.2,158.7 435.7,160.2 435.2,161.9 
		434.8,163.7 434.8,200.4 	"/>
	<polygon id="Stroke-12" class="st0" points="420,136.7 432.7,136.7 433.2,148.4 433.7,146.7 434.3,145.2 435,143.9 435.8,142.5 
		436.7,141.4 437.5,140.4 438.5,139.5 439.5,138.5 440.5,137.7 441.7,137.2 443,136.7 444.3,136.2 445.7,135.9 447.2,135.7 
		448.8,135.5 450.5,135.5 455,135.5 455,149.4 451.7,149.4 449.8,149.5 448.2,149.5 446.5,149.9 445.2,150.2 443.8,150.7 
		442.5,151.2 441.3,152 440.2,152.7 439.3,153.7 438.5,154.7 437.7,155.9 437,157.2 436.2,158.7 435.7,160.2 435.2,161.9 
		434.8,163.7 434.8,200.4 420,200.4 	"/>
	<polygon id="Fill-13" points="465.5,222.7 465.5,210.7 471.8,210.7 473.2,210.7 474,210.7 474.5,210.5 475,210.2 475.7,210.2 
		476,209.9 476.5,209.7 477,209.2 477.3,208.9 477.7,208.4 478,207.9 478.3,207.2 478.7,206.7 479.2,205.2 481.3,198.7 459,136.7 
		474.8,136.7 489,180 502,136.7 517,136.7 493.2,206.9 492.5,209 491.7,211 490.8,212.9 490,214.5 489,216 488.2,217.2 487.7,217.9 
		487,218.4 486.5,218.9 486,219.4 485.5,219.7 484.8,220.2 484.2,220.5 483.5,221 483,221.2 482.2,221.5 480.7,222 479.2,222.2 
		477.3,222.5 475.5,222.7 473.5,222.7 	"/>
	<polygon id="Stroke-14" class="st0" points="465.5,210.7 471.8,210.7 473.2,210.7 474,210.7 474.5,210.5 475,210.2 475.7,210.2 
		476,209.9 476.5,209.7 477,209.2 477.3,208.9 477.7,208.4 478,207.9 478.3,207.2 478.7,206.7 479.2,205.2 481.3,198.7 459,136.7 
		474.8,136.7 489,180 502,136.7 517,136.7 493.2,206.9 492.5,209 491.7,211 490.8,212.9 490,214.5 489,216 488.2,217.2 487.7,217.9 
		487,218.4 486.5,218.9 486,219.4 485.5,219.7 484.8,220.2 484.2,220.5 483.5,221 483,221.2 482.2,221.5 480.7,222 479.2,222.2 
		477.3,222.5 475.5,222.7 473.5,222.7 465.5,222.7 	"/>
	<polygon id="Fill-15" points="545.6,201.7 544,201.7 542.3,201.7 540.8,201.5 539.1,201.5 537.8,201.2 536.5,201 535.1,200.9 
		533.8,200.5 532.5,200.2 531.5,199.7 530.3,199.4 529.1,198.9 528.1,198.4 527.1,197.9 526.3,197.2 525.5,196.7 524.6,196 
		524,195.2 523.1,194.5 522.5,193.7 522,193 521.5,192 521,191.2 520.5,190.2 520.1,189.2 519.8,188.2 519.5,187.2 519.3,186 
		519.1,184.9 519,183.7 519,182.5 519,181.2 533,181.2 533,182.4 533.1,183.4 533.5,184.4 533.6,185.4 534.1,186.2 534.6,186.9 
		535.3,187.5 536,188.2 536.8,188.7 537.8,189.2 538.8,189.5 540,190 541.1,190.2 542.5,190.4 544,190.5 545.6,190.5 547,190.5 
		548.5,190.4 549.6,190.2 550.6,190 551.8,189.7 552.6,189.5 553.6,189 554.5,188.5 555.1,188 555.6,187.5 556.1,187 556.5,186.2 
		556.8,185.5 557.1,184.7 557.1,184 557.3,183 557.1,182 557.1,181.2 556.8,180.4 556.5,179.7 556.1,179 555.5,178.2 554.8,177.7 
		554,177 553.1,176.7 552,176.2 550.8,175.7 549.5,175.4 548,175 546.3,174.7 544.6,174.5 542.6,174.2 539.6,173.7 537,173.4 
		534.5,172.7 532.3,172 531.1,171.7 530.1,171.2 529.3,171 528.5,170.5 527.5,170 526.6,169.5 526,169 525.3,168.4 524.6,167.9 
		524.1,167.2 523.5,166.7 523,166 522.5,165.2 522.1,164.5 521.6,163.7 521.3,163 521.1,162 520.8,161.2 520.6,160.4 520.5,159.5 
		520.3,158.5 520.1,157.5 520.1,156.4 520.1,155.2 520.1,154 520.1,153 520.3,151.7 520.5,150.7 520.8,149.5 521.1,148.5 
		521.5,147.5 521.8,146.7 522.1,145.7 522.6,144.7 523.3,144 524,143.2 524.5,142.4 525.1,141.7 526,141 526.6,140.2 527.5,139.7 
		528.5,139 529.5,138.5 530.3,138 531.3,137.5 532.5,137.2 533.6,136.9 534.6,136.5 536,136.2 537.1,135.9 538.5,135.7 539.8,135.5 
		541.1,135.4 542.6,135.2 544.1,135.2 545.6,135.2 547.1,135.2 548.6,135.2 550,135.4 551.3,135.5 552.6,135.7 554,135.9 
		555.1,136.2 556.5,136.5 557.5,136.7 558.6,137.2 559.6,137.5 560.6,138 561.6,138.5 562.5,139 563.5,139.7 564.1,140.2 565,140.9 
		565.6,141.5 566.3,142.4 567,143 567.5,143.9 568,144.7 568.5,145.5 569,146.5 569.1,147.5 569.6,148.5 569.8,149.5 570,150.5 
		570.1,151.7 570.3,152.7 570.5,154 570.5,155.2 556.3,155.2 556.3,154.2 556.1,153.2 556,152.2 555.6,151.4 555.3,150.5 
		554.8,149.9 554.1,149.2 553.6,148.7 553,148.2 552.1,147.7 551.1,147.4 550.3,147 549.1,146.7 548,146.7 546.8,146.5 545.5,146.5 
		544.1,146.5 543,146.5 541.8,146.7 540.8,147 539.8,147.2 539,147.5 538.1,148 537.5,148.4 536.8,148.9 536.1,149.4 535.6,150 
		535.3,150.7 535,151.4 534.8,152.2 534.6,152.9 534.6,153.7 534.6,154.7 534.8,155.5 535.1,156.2 535.5,157 535.8,157.5 
		536.5,158.2 537,158.7 538,159.2 538.6,159.7 539.8,160.2 541,160.5 542.3,160.9 543.6,161.2 545.3,161.5 547,161.7 549,161.9 
		552,162.4 554.6,162.7 557.1,163.4 558.5,163.7 559.5,164 560.6,164.5 561.6,164.9 562.5,165.2 563.5,165.7 564.3,166.2 
		565.1,166.9 566,167.4 566.6,168 567.1,168.5 568,169.2 568.5,169.9 569,170.5 569.5,171.2 569.8,172 570.1,172.9 570.6,173.7 
		570.8,174.5 571.1,175.5 571.3,176.5 571.5,177.5 571.6,178.5 571.6,179.5 571.8,180.5 571.8,181.7 571.8,183 571.6,184.2 
		571.5,185.2 571.5,186.4 571.1,187.5 571,188.5 570.5,189.5 570.1,190.5 569.6,191.4 569.1,192.2 568.6,193.2 568.1,193.9 
		567.5,194.7 566.8,195.5 566,196 565.3,196.7 564.5,197.4 563.5,198 562.5,198.5 561.5,199 560.5,199.4 559.5,199.9 558.1,200.2 
		557,200.5 555.8,200.9 554.5,201 553.1,201.2 551.6,201.5 550.3,201.5 548.6,201.7 547.1,201.7 	"/>
	<polygon id="Stroke-16" class="st0" points="519,181.2 533,181.2 533,182.4 533.1,183.4 533.5,184.4 533.6,185.4 534.1,186.2 
		534.6,186.9 535.3,187.5 536,188.2 536.8,188.7 537.8,189.2 538.8,189.5 540,190 541.1,190.2 542.5,190.4 544,190.5 545.6,190.5 
		547,190.5 548.5,190.4 549.6,190.2 550.6,190 551.8,189.7 552.6,189.5 553.6,189 554.5,188.5 555.1,188 555.6,187.5 556.1,187 
		556.5,186.2 556.8,185.5 557.1,184.7 557.1,184 557.3,183 557.1,182 557.1,181.2 556.8,180.4 556.5,179.7 556.1,179 555.5,178.2 
		554.8,177.7 554,177 553.1,176.7 552,176.2 550.8,175.7 549.5,175.4 548,175 546.3,174.7 544.6,174.5 542.6,174.2 539.6,173.7 
		537,173.4 534.5,172.7 532.3,172 531.1,171.7 530.1,171.2 529.3,171 528.5,170.5 527.5,170 526.6,169.5 526,169 525.3,168.4 
		524.6,167.9 524.1,167.2 523.5,166.7 523,166 522.5,165.2 522.1,164.5 521.6,163.7 521.3,163 521.1,162 520.8,161.2 520.6,160.4 
		520.5,159.5 520.3,158.5 520.1,157.5 520.1,156.4 520.1,155.2 520.1,154 520.1,153 520.3,151.7 520.5,150.7 520.8,149.5 
		521.1,148.5 521.5,147.5 521.8,146.7 522.1,145.7 522.6,144.7 523.3,144 524,143.2 524.5,142.4 525.1,141.7 526,141 526.6,140.2 
		527.5,139.7 528.5,139 529.5,138.5 530.3,138 531.3,137.5 532.5,137.2 533.6,136.9 534.6,136.5 536,136.2 537.1,135.9 538.5,135.7 
		539.8,135.5 541.1,135.4 542.6,135.2 544.1,135.2 545.6,135.2 547.1,135.2 548.6,135.2 550,135.4 551.3,135.5 552.6,135.7 
		554,135.9 555.1,136.2 556.5,136.5 557.5,136.7 558.6,137.2 559.6,137.5 560.6,138 561.6,138.5 562.5,139 563.5,139.7 564.1,140.2 
		565,140.9 565.6,141.5 566.3,142.4 567,143 567.5,143.9 568,144.7 568.5,145.5 569,146.5 569.1,147.5 569.6,148.5 569.8,149.5 
		570,150.5 570.1,151.7 570.3,152.7 570.5,154 570.5,155.2 556.3,155.2 556.3,154.2 556.1,153.2 556,152.2 555.6,151.4 555.3,150.5 
		554.8,149.9 554.1,149.2 553.6,148.7 553,148.2 552.1,147.7 551.1,147.4 550.3,147 549.1,146.7 548,146.7 546.8,146.5 545.5,146.5 
		544.1,146.5 543,146.5 541.8,146.7 540.8,147 539.8,147.2 539,147.5 538.1,148 537.5,148.4 536.8,148.9 536.1,149.4 535.6,150 
		535.3,150.7 535,151.4 534.8,152.2 534.6,152.9 534.6,153.7 534.6,154.7 534.8,155.5 535.1,156.2 535.5,157 535.8,157.5 
		536.5,158.2 537,158.7 538,159.2 538.6,159.7 539.8,160.2 541,160.5 542.3,160.9 543.6,161.2 545.3,161.5 547,161.7 549,161.9 
		552,162.4 554.6,162.7 557.1,163.4 558.5,163.7 559.5,164 560.6,164.5 561.6,164.9 562.5,165.2 563.5,165.7 564.3,166.2 
		565.1,166.9 566,167.4 566.6,168 567.1,168.5 568,169.2 568.5,169.9 569,170.5 569.5,171.2 569.8,172 570.1,172.9 570.6,173.7 
		570.8,174.5 571.1,175.5 571.3,176.5 571.5,177.5 571.6,178.5 571.6,179.5 571.8,180.5 571.8,181.7 571.8,183 571.6,184.2 
		571.5,185.2 571.5,186.4 571.1,187.5 571,188.5 570.5,189.5 570.1,190.5 569.6,191.4 569.1,192.2 568.6,193.2 568.1,193.9 
		567.5,194.7 566.8,195.5 566,196 565.3,196.7 564.5,197.4 563.5,198 562.5,198.5 561.5,199 560.5,199.4 559.5,199.9 558.1,200.2 
		557,200.5 555.8,200.9 554.5,201 553.1,201.2 551.6,201.5 550.3,201.5 548.6,201.7 547.1,201.7 545.6,201.7 544,201.7 542.3,201.7 
		540.8,201.5 539.1,201.5 537.8,201.2 536.5,201 535.1,200.9 533.8,200.5 532.5,200.2 531.5,199.7 530.3,199.4 529.1,198.9 
		528.1,198.4 527.1,197.9 526.3,197.2 525.5,196.7 524.6,196 524,195.2 523.1,194.5 522.5,193.7 522,193 521.5,192 521,191.2 
		520.5,190.2 520.1,189.2 519.8,188.2 519.5,187.2 519.3,186 519.1,184.9 519,183.7 519,182.5 	"/>
	<polygon id="Fill-17" points="602.6,200.4 600.5,200.2 599.3,200.2 598.1,200 597.1,199.9 596.3,199.7 595.5,199.5 594.5,199.2 
		593.6,198.9 592.8,198.5 592.1,198.2 591.5,197.7 590.6,197.2 590.1,196.7 589.5,196 589,195.5 588.5,194.9 587.8,194.2 
		587.5,193.5 587,192.7 586.6,191.9 586.1,191 586,190.2 585.6,189.2 585.5,188.2 585.1,187.2 585,186 584.8,185 584.6,182.5 
		584.6,180 584.6,148 574.5,148 574.5,136.7 584.8,136.7 585.8,120.2 599.3,120.2 599.3,136.7 613.6,136.7 613.6,148 599.3,148 
		599.3,179.5 599.5,180.7 599.5,181.9 599.5,183 599.6,183.7 600,184.7 600.1,185.4 600.5,186 601,186.5 601.5,187 602,187.5 
		602.6,187.7 603.3,188 604.1,188.2 605.1,188.4 606.1,188.4 607.1,188.4 614.5,188.4 614.5,200.4 	"/>
	<polygon id="Stroke-18" class="st0" points="584.6,180 584.6,148 574.5,148 574.5,136.7 584.8,136.7 585.8,120.2 599.3,120.2 
		599.3,136.7 613.6,136.7 613.6,148 599.3,148 599.3,179.5 599.5,180.7 599.5,181.9 599.5,183 599.6,183.7 600,184.7 600.1,185.4 
		600.5,186 601,186.5 601.5,187 602,187.5 602.6,187.7 603.3,188 604.1,188.2 605.1,188.4 606.1,188.4 607.1,188.4 614.5,188.4 
		614.5,200.4 602.6,200.4 600.5,200.2 599.3,200.2 598.1,200 597.1,199.9 596.3,199.7 595.5,199.5 594.5,199.2 593.6,198.9 
		592.8,198.5 592.1,198.2 591.5,197.7 590.6,197.2 590.1,196.7 589.5,196 589,195.5 588.5,194.9 587.8,194.2 587.5,193.5 587,192.7 
		586.6,191.9 586.1,191 586,190.2 585.6,189.2 585.5,188.2 585.1,187.2 585,186 584.8,185 584.6,182.5 	"/>
	<path id="Fill-19" d="M638.8,201.7h-1.1l-1.2-0.1l-1.1-0.1l-1.1-0.1l-1.1-0.2l-1-0.3l-1-0.3l-0.9-0.3l-0.9-0.3l-0.9-0.4l-0.9-0.4
		l-0.8-0.4l-0.8-0.5l-0.8-0.5l-0.8-0.6l-0.7-0.6l-0.6-0.6l-0.6-0.7l-0.6-0.7l-0.5-0.8L621,193l-0.4-0.8l-0.4-0.8l-0.4-0.9l-0.3-0.9
		l-0.3-1l-0.3-0.9l-0.2-1.1l-0.2-1l-0.1-1.1l-0.1-1.1v-1.2V181l0.1-1.2l0.1-1.1l0.2-1.1l0.3-1.1l0.3-1.1l0.3-1l0.4-0.9l0.4-0.9
		l0.4-0.9l0.6-0.8l0.6-0.8l0.6-0.8l0.6-0.7l0.8-0.8l0.8-0.6l0.8-0.6l0.9-0.6l0.9-0.6l0.9-0.5l1.1-0.5l1.1-0.4l1.1-0.4l1.2-0.3
		l1.2-0.3l1.3-0.3l1.3-0.2l1.4-0.2l1.5-0.2l1.5-0.1l1.6-0.1l1.6-0.1h13.5V159l-0.1-1.5l-0.1-1.4l-0.3-1.3l-0.3-1.2l-0.4-1.1
		l-0.5-0.9l-0.6-0.9l-0.6-0.8l-0.8-0.7l-0.9-0.6l-0.9-0.5l-1-0.4l-1.1-0.3l-1.3-0.3l-1.3-0.1l-1.5-0.1l-1.3,0.1l-1.3,0.1l-1.1,0.2
		l-1.1,0.3l-1,0.3l-0.9,0.4l-0.8,0.5l-0.8,0.5l-0.7,0.6l-0.6,0.7l-0.5,0.8l-0.4,0.8l-0.3,0.9l-0.3,0.9l-0.2,1.1l-0.1,1.1h-14.2
		l0.1-1.3l0.1-1.3l0.3-1.2l0.2-1.2l0.3-1.1l0.4-1.1l0.4-1.1l0.4-1l0.5-0.9l0.5-0.9l0.6-0.9l0.6-0.8l0.6-0.8l0.7-0.8l0.8-0.7l0.8-0.7
		l0.8-0.6l0.9-0.6l0.9-0.6l1-0.5l1-0.5l1.1-0.4l1.1-0.4l1.1-0.3l1.3-0.3l1.3-0.3l1.3-0.3l1.3-0.2l1.4-0.1l1.5-0.1l1.5-0.1h1.6h1.6
		l1.5,0.1l1.5,0.1l1.5,0.1l1.4,0.3l1.4,0.3l1.3,0.3l1.3,0.4l1.2,0.4l1.1,0.4l1.1,0.4l1,0.5l1,0.6l0.9,0.6l0.9,0.7l0.8,0.7l0.8,0.8
		l0.8,0.8l0.6,0.9l0.6,0.9l0.6,0.9l0.5,1l0.5,1.1l0.4,1.1l0.4,1.2l0.3,1.2l0.3,1.3l0.2,1.3l0.2,1.4l0.1,1.4l0.1,1.5v1.5v41.2h-12.5
		l-0.5-8.3l-0.9,1.1l-1,1.1l-1,1l-1,0.9l-1.1,0.9l-1.1,0.8l-1.2,0.8l-1.2,0.6l-1.3,0.6l-1.3,0.5l-1.4,0.4l-1.5,0.3l-1.5,0.3
		l-2.1,0.1l-1.6,0.1H638.8L638.8,201.7z M642.6,172.5l-1.5,0.2l-1.3,0.3l-1.2,0.3l-1.1,0.4l-0.9,0.4l-0.9,0.6l-0.7,0.6l-0.6,0.7
		l-0.5,0.7l-0.4,0.8l-0.3,0.9l-0.2,0.9l-0.1,1l-0.1,1.1l0.1,0.9l0.1,1l0.2,0.9l0.3,0.8l0.3,0.8l0.4,0.7l0.5,0.6l0.6,0.6l0.6,0.6
		l0.8,0.4l0.8,0.4l0.9,0.3l0.9,0.3l1,0.1l1.1,0.1l1.2,0.1l1.2-0.1l1.2-0.1l1.2-0.2l1.1-0.3l1.1-0.4l1-0.4l1-0.5l0.9-0.6l0.9-0.6
		l0.9-0.8l0.8-0.8l0.8-0.8l0.7-0.9l0.8-1l0.6-1.1l0.6-1.1v-7.8h-11.6h-1.7L642.6,172.5z"/>
	<path id="Stroke-20" class="st0" d="M618.1,182.2L618.1,182.2V181l0.1-1.2l0.1-1.1l0.2-1.1l0.3-1.1l0.3-1.1l0.3-1l0.4-0.9l0.4-0.9
		l0.4-0.9l0.6-0.8l0.6-0.8l0.6-0.8l0.6-0.7l0.8-0.8l0.8-0.6l0.8-0.6l0.9-0.6l0.9-0.6l0.9-0.5l1.1-0.5l1.1-0.4l1.1-0.4l1.2-0.3
		l1.2-0.3l1.3-0.3l1.3-0.2l1.4-0.2l1.5-0.2l1.5-0.1l1.6-0.1l1.6-0.1h13.5V159l-0.1-1.5l-0.1-1.4l-0.2-1.3l-0.3-1.2l-0.4-1.1
		l-0.5-0.9l-0.6-0.9l-0.6-0.8l-0.8-0.7l-0.9-0.6l-0.9-0.5l-1-0.4l-1.1-0.3l-1.3-0.3l-1.3-0.1l-1.5-0.1l-1.3,0.1l-1.3,0.1l-1.1,0.2
		l-1.1,0.3l-1,0.3l-0.9,0.4l-0.8,0.5l-0.8,0.5l-0.7,0.6l-0.6,0.7l-0.5,0.8l-0.4,0.8l-0.3,0.9l-0.3,0.9l-0.2,1.1l-0.1,1.1h-14.2
		l0.1-1.3l0.1-1.3l0.3-1.2l0.2-1.2l0.3-1.1l0.4-1.1l0.4-1.1l0.4-1l0.5-0.9l0.5-0.9l0.6-0.9l0.6-0.8l0.6-0.8l0.7-0.8l0.8-0.7l0.8-0.7
		l0.8-0.6l0.9-0.6l0.9-0.6l1-0.5l1-0.5l1.1-0.4l1.1-0.4l1.1-0.3l1.3-0.3l1.3-0.3l1.3-0.3l1.3-0.2l1.4-0.1l1.5-0.1l1.5-0.1h1.6h1.6
		l1.5,0.1l1.5,0.1l1.5,0.1l1.4,0.3l1.4,0.3l1.3,0.3l1.3,0.4l1.2,0.4l1.1,0.4l1.1,0.4l1,0.5l1,0.6l0.9,0.6l0.9,0.7l0.8,0.7l0.8,0.8
		l0.8,0.8l0.6,0.9l0.6,0.9l0.6,0.9l0.5,1l0.5,1.1l0.4,1.1l0.4,1.2l0.3,1.2l0.3,1.3l0.2,1.3l0.2,1.4l0.1,1.4l0.1,1.5v1.5v41.2h-12.5
		l-0.5-8.3l-0.9,1.1l-1,1.1l-1,1l-1,0.9l-1.1,0.9l-1.1,0.8l-1.2,0.8l-1.2,0.6l-1.3,0.6l-1.3,0.5l-1.4,0.4l-1.5,0.3l-1.5,0.3
		l-2.1,0.1l-1.6,0.1h-1.7h-1.1l-1.2-0.1l-1.1-0.1l-1.1-0.1l-1.1-0.2l-1-0.3l-1-0.3l-0.9-0.3l-0.9-0.3l-0.9-0.4l-0.9-0.4l-0.8-0.4
		l-0.8-0.5l-0.8-0.5l-0.8-0.6l-0.7-0.6l-0.6-0.6l-0.6-0.7l-0.6-0.7l-0.5-0.8l-0.5-0.8l-0.4-0.8l-0.4-0.8l-0.4-0.9l-0.3-0.9l-0.3-1
		l-0.3-0.9l-0.2-1.1l-0.2-1l-0.1-1.1l-0.1-1.1L618.1,182.2L618.1,182.2z M657.5,180.2v-7.8h-11.6h-1.7l-1.6,0.1l-1.5,0.2l-1.3,0.3
		l-1.2,0.3l-1.1,0.4l-0.9,0.4l-0.9,0.6l-0.7,0.6l-0.6,0.7l-0.5,0.7l-0.4,0.8l-0.3,0.9l-0.2,0.9l-0.1,1l-0.1,1.1l0.1,0.9l0.1,1
		l0.2,0.9l0.3,0.8l0.3,0.8l0.4,0.7l0.5,0.6l0.6,0.6l0.6,0.6l0.8,0.4l0.8,0.4l0.9,0.3l0.9,0.3l1,0.1l1.1,0.1l1.2,0.1l1.2-0.1l1.2-0.1
		l1.2-0.2l1.1-0.3l1.1-0.4l1-0.4l1-0.5l0.9-0.6l0.9-0.6l0.9-0.8l0.8-0.8l0.8-0.8l0.7-0.9l0.8-1l0.6-1.1L657.5,180.2z"/>
	<polygon id="Fill-21" points="680,110.8 694.8,110.8 694.8,200.4 680,200.4 	"/>
</g>
<polygon id="Stroke-22" class="st0" points="957,233.9 971.7,233.9 971.7,323.5 957,323.5 "/>
<polygon id="Fill-51" class="st1" points="181.4,144.7 202.4,116.9 237.3,116.9 272.2,116.9 293.2,144.7 237.3,200.4 "/>
<polygon id="Stroke-52" class="st0" points="272.2,116.9 237.3,116.9 202.4,116.9 181.4,144.7 237.3,200.4 293.2,144.7 "/>
<text transform="matrix(1 0 0 1 345.4396 102.8579)" class="st2 st3">BLOCKCYPHERMININGS</text>
</svg>
