<?xml version="1.0" encoding="utf-8"?>
<!-- Generator: Adobe Illustrator 19.0.0, SVG Export Plug-In . SVG Version: 6.00 Build 0)  -->
<svg version="1.1" id="Layer_1" xmlns="http://www.w3.org/2000/svg" xmlns:xlink="http://www.w3.org/1999/xlink" x="0px" y="0px"
	 viewBox="177 55 653 192" style="enable-background:new 177 55 653 192;" xml:space="preserve">
<style type="text/css">
	.st0{fill:none;stroke:#FFFFFF;stroke-opacity:0;}
	.st1{fill:#0B8ED8;}
	.st2{fill:#F19500;}
	.st3{fill:#0B8ED8;stroke:#FFFFFF;stroke-opacity:0;}
	.st4{font-family:'Verdana';}
	.st5{font-size:29.471px;}
</style>
<title>Artboard</title>
<desc>Created with Sketch.</desc>
<polygon id="Fill-54" points="376.1,219.9 376.1,135.1 432.9,135.1 432.9,148.4 391.3,148.4 391.3,170 426.7,170 426.7,183.2 
	391.3,183.2 391.3,206.6 434.1,206.6 434.1,219.9 "/>
<polygon id="Stroke-55" class="st0" points="376.1,135.1 432.9,135.1 432.9,148.4 391.3,148.4 391.3,170 426.7,170 426.7,183.2 
	391.3,183.2 391.3,206.6 434.1,206.6 434.1,219.9 376.1,219.9 "/>
<polygon id="Fill-56" points="484.5,219.9 469.7,197.2 456.3,219.9 440,219.9 461.4,186 441.1,155.1 458.8,155.1 472.5,176.2 
	485.1,155.1 501.4,155.1 480.9,187.6 502.2,219.9 "/>
<polygon id="Stroke-57" class="st0" points="461.4,186 441.1,155.1 458.8,155.1 472.5,176.2 485.1,155.1 501.4,155.1 480.9,187.6 
	502.2,219.9 484.5,219.9 469.7,197.2 456.3,219.9 440,219.9 "/>
<path id="Fill-58" d="M530.2,221.3L527,221l-3-0.6l-2.8-0.8l-1.4-0.5l-1.3-0.5l-1.2-0.6l-1.2-0.7l-1-0.7l-1-0.7l-1-0.8l-0.9-0.8
	l-0.8-0.9l-0.8-1l-0.8-0.9l-0.7-1.2l-0.7-1l-0.6-1.3l-0.5-1.2l-0.5-1.3l-0.8-2.8l-0.6-3l-0.3-3.1l-0.1-3.5v-11.2l0.1-3.5l0.3-3.1
	l0.6-3l0.8-2.8l0.5-1.3l0.5-1.2l0.6-1.3l0.7-1l0.7-1.2l0.8-0.9l0.8-1l0.8-0.9l0.9-0.8l1-0.8l1-0.7l1-0.7l1.2-0.7l1.2-0.6l1.3-0.5
	l1.4-0.5l2.8-0.8l3-0.6l3.2-0.3l3.4-0.1l3.5,0.1l3.2,0.3l3.1,0.6l2.8,0.8l1.3,0.5l1.3,0.5l1.3,0.6l1,0.7l1.2,0.7l1,0.7l0.9,0.8
	l0.9,0.8l0.9,0.9l0.8,1l0.8,0.9l0.7,1.2l0.6,1l0.7,1.3l0.5,1.2l0.5,1.3l0.8,2.8l0.6,3l0.3,3.1l0.1,3.5v11.2l-0.1,3.5l-0.3,3.1
	l-0.6,3l-0.9,2.8l-0.5,1.3l-0.5,1.2l-0.7,1.3l-0.6,1l-0.7,1.2l-0.8,0.9l-0.8,1l-0.9,0.9l-0.9,0.8l-0.9,0.8l-1,0.7l-1.2,0.7l-1,0.7
	l-1.3,0.6l-1.3,0.5l-1.3,0.5l-2.8,0.8l-3.1,0.6l-3.2,0.3l-3.5,0.1L530.2,221.3z M530.3,166.4l-1.5,0.3l-1.4,0.3l-1.2,0.6l-1.2,0.7
	l-1,0.7l-0.8,0.9l-0.8,1l-0.7,1.3l-0.6,1.3l-0.5,1.5l-0.3,1.5l-0.2,1.7l-0.2,1.9v2.1v10.5v2.1l0.2,1.9l0.2,1.7l0.3,1.5l0.5,1.5
	l0.6,1.3l0.7,1.3l0.8,1l0.8,0.9l1,0.7l1.2,0.7l1.2,0.6l1.4,0.5l1.5,0.2l1.6,0.2h1.6h1.7l1.6-0.2l1.5-0.2l1.4-0.5l1.3-0.6l1.2-0.7
	l0.9-0.7l0.9-0.9l0.8-1l0.7-1.3l0.6-1.3l0.5-1.5l0.3-1.5l0.2-1.7l0.1-1.9l0.1-2.1v-10.5l-0.1-2.1l-0.1-1.9l-0.2-1.7l-0.3-1.5
	l-0.5-1.5l-0.6-1.3l-0.7-1.3l-0.8-1l-0.9-0.9l-0.9-0.7l-1.2-0.7l-1.3-0.6l-1.4-0.3l-1.5-0.3l-1.6-0.2h-1.7h-1.6L530.3,166.4z"/>
<path id="Stroke-59" class="st0" d="M505,193.1v-11.2l0.1-3.5l0.3-3.1l0.6-3l0.8-2.8l0.5-1.3l0.5-1.2l0.6-1.3l0.7-1l0.7-1.2l0.8-0.9
	l0.8-1l0.8-0.9l0.9-0.8l1-0.8l1-0.7l1-0.7l1.2-0.7l1.2-0.6l1.3-0.5l1.4-0.5l2.8-0.8l3-0.6l3.2-0.3l3.4-0.1l3.5,0.1l3.2,0.3l3.1,0.6
	l2.8,0.8l1.3,0.5l1.3,0.5l1.3,0.6l1,0.7l1.2,0.7l1,0.7l0.9,0.8l0.9,0.8l0.9,0.9l0.8,1l0.8,0.9l0.7,1.2l0.6,1l0.7,1.3l0.5,1.2
	l0.5,1.3l0.8,2.8l0.6,3l0.3,3.1l0.1,3.5v11.2l-0.1,3.5l-0.3,3.1l-0.6,3l-0.9,2.8l-0.5,1.3l-0.5,1.2l-0.7,1.3l-0.6,1l-0.7,1.2
	l-0.8,0.9l-0.8,1l-0.9,0.9l-0.9,0.8l-0.9,0.8l-1,0.7l-1.2,0.7l-1,0.7l-1.3,0.6l-1.3,0.5l-1.3,0.5l-2.8,0.8l-3.1,0.6l-3.2,0.3
	l-3.5,0.1l-3.4-0.1l-3.2-0.3l-3-0.6l-2.8-0.8l-1.4-0.5l-1.3-0.5l-1.2-0.6l-1.2-0.7l-1-0.7l-1-0.7l-1-0.8l-0.9-0.8l-0.8-0.9l-0.8-1
	l-0.8-0.9l-0.7-1.2l-0.7-1l-0.6-1.3l-0.5-1.2l-0.5-1.3l-0.8-2.8l-0.6-3l-0.3-3.1L505,193.1L505,193.1z M547.5,192.8v-10.5l-0.1-2.1
	l-0.1-1.9l-0.2-1.7l-0.3-1.5l-0.5-1.5l-0.6-1.3L545,171l-0.8-1l-0.9-0.9l-0.9-0.7l-1.2-0.7l-1.3-0.6l-1.4-0.3l-1.5-0.3l-1.6-0.2
	h-1.7h-1.6l-1.6,0.2l-1.5,0.3l-1.4,0.3l-1.2,0.6l-1.2,0.7l-1,0.7l-0.8,0.9l-0.8,1l-0.7,1.3l-0.6,1.3l-0.5,1.5l-0.3,1.5l-0.2,1.7
	l-0.2,1.9v2.1v10.5v2.1l0.2,1.9l0.2,1.7l0.3,1.5l0.5,1.5l0.6,1.3l0.7,1.3l0.8,1l0.8,0.9l1,0.7l1.2,0.7l1.2,0.6l1.4,0.5l1.5,0.2
	l1.6,0.2h1.6h1.7l1.6-0.2l1.5-0.2l1.4-0.5l1.3-0.6l1.2-0.7l0.9-0.7l0.9-0.9l0.8-1l0.7-1.3l0.6-1.3l0.5-1.5l0.3-1.5l0.2-1.7l0.1-1.9
	L547.5,192.8z"/>
<polygon id="Fill-60" points="613.2,219.9 613.2,178.4 613.2,177 613.1,175.6 612.8,174.5 612.6,173.3 612.4,172.3 611.9,171.4 
	611.4,170.4 611,169.7 610.3,169 609.6,168.5 608.9,168 608.1,167.5 607.2,167.3 606.1,167.1 605.1,167 604,166.8 602.9,167 
	601.7,167.1 600.7,167.3 599.6,167.5 598.7,168 597.7,168.5 596.7,168.9 595.8,169.6 594.9,170.3 594.1,171.1 593.3,172.1 
	592.5,173 591.7,174.1 591,175.3 589.6,177.8 589.6,219.9 574.6,219.9 574.6,155.1 587.3,155.1 587.8,164.1 588.8,162.7 
	589.8,161.5 590.8,160.4 591.9,159.3 593,158.4 594.2,157.6 595.4,156.8 596.6,156.2 597.9,155.5 599.2,155 600.4,154.6 
	601.8,154.2 603.3,154 604.7,153.9 606.2,153.8 607.9,153.6 610.3,153.8 612.6,154 614.7,154.4 616.6,155.1 618.5,156 620.2,157 
	621.7,158.2 623,159.5 624.3,161.2 625.3,162.9 626.1,164.9 626.8,167 627.4,169.2 627.9,171.7 628.1,174.3 628.1,177.2 
	628.1,219.9 "/>
<polygon id="Stroke-61" class="st0" points="574.6,155.1 587.3,155.1 587.8,164.1 588.8,162.7 589.8,161.5 590.8,160.4 591.9,159.3 
	593,158.4 594.2,157.6 595.4,156.8 596.6,156.2 597.9,155.5 599.2,155 600.4,154.6 601.8,154.2 603.3,154 604.7,153.9 606.2,153.8 
	607.8,153.6 610.3,153.8 612.6,154 614.7,154.4 616.6,155.1 618.5,156 620.2,157 621.7,158.2 623,159.5 624.3,161.2 625.3,162.9 
	626.1,164.9 626.8,167 627.4,169.2 627.9,171.7 628.1,174.3 628.1,177.2 628.1,219.9 613.2,219.9 613.2,178.4 613.2,177 
	613.1,175.6 612.8,174.5 612.6,173.3 612.4,172.3 611.9,171.4 611.4,170.4 611,169.7 610.3,169 609.6,168.5 608.9,168 608.1,167.5 
	607.2,167.3 606.1,167.1 605.1,167 604,166.8 602.9,167 601.7,167.1 600.7,167.3 599.6,167.5 598.7,168 597.7,168.5 596.7,168.9 
	595.8,169.6 594.9,170.3 594.1,171.1 593.3,172.1 592.5,173 591.7,174.1 591,175.3 589.6,177.8 589.6,219.9 574.6,219.9 "/>
<polygon id="Fill-62" points="659.8,221.3 657.5,221.1 655.3,220.6 653.3,219.9 651.5,219.1 649.9,218 648.2,216.9 646.8,215.5 
	645.7,213.9 644.6,212.1 643.7,210.2 643,208.1 642.4,205.9 642,203.3 641.8,200.8 641.8,197.9 641.8,155.1 656.7,155.1 
	656.7,196.6 656.7,198 656.8,199.4 657,200.7 657.3,201.8 657.6,202.9 657.9,203.8 658.4,204.6 659,205.4 659.6,206.1 660.3,206.6 
	661.1,207.2 661.9,207.5 662.8,207.7 663.7,208 664.9,208.1 666,208.2 667.2,208.1 668.2,208 669.4,207.7 670.4,207.5 671.5,207.2 
	672.5,206.7 673.5,206.1 674.4,205.4 675.3,204.7 676.2,203.9 677,203 677.9,201.9 678.7,200.9 679.4,199.6 680.2,198.3 680.9,197 
	680.9,155.1 695.8,155.1 695.8,219.9 683.1,219.9 682.6,210.7 681.6,212.1 680.5,213.3 679.5,214.4 678.3,215.5 677.3,216.5 
	676,217.3 674.8,218.2 673.7,218.9 672.4,219.4 671,220 669.8,220.4 668.4,220.7 666.9,221.1 665.4,221.2 663.9,221.3 662.2,221.4 
	"/>
<polygon id="Stroke-63" class="st0" points="641.8,197.9 641.8,155.1 656.7,155.1 656.7,196.6 656.7,198 656.8,199.4 657,200.7 
	657.3,201.8 657.6,202.9 657.9,203.8 658.4,204.6 659,205.4 659.6,206.1 660.3,206.6 661.1,207.2 661.9,207.5 662.8,207.7 
	663.7,208 664.9,208.1 666,208.2 667.2,208.1 668.2,208 669.4,207.7 670.4,207.5 671.5,207.2 672.5,206.7 673.5,206.1 674.4,205.4 
	675.3,204.7 676.2,203.9 677,203 677.9,201.9 678.7,200.9 679.4,199.6 680.2,198.3 680.9,197 680.9,155.1 695.8,155.1 695.8,219.9 
	683.1,219.9 682.6,210.7 681.6,212.1 680.5,213.3 679.5,214.4 678.3,215.5 677.3,216.5 676,217.3 674.8,218.2 673.7,218.9 
	672.4,219.4 671,220 669.8,220.4 668.4,220.7 666.9,221.1 665.4,221.2 663.9,221.3 662.2,221.4 659.8,221.3 657.5,221.1 
	655.3,220.6 653.3,219.9 651.5,219.1 649.9,218 648.2,216.9 646.8,215.5 645.7,213.9 644.6,212.1 643.7,210.2 643,208.1 
	642.4,205.9 642,203.3 641.8,200.8 "/>
<polygon id="Fill-64" points="785.5,219.9 785.5,177.3 785.5,176 785.3,174.7 785.1,173.7 784.9,172.6 784.5,171.7 784.2,170.8 
	783.7,170.1 783.1,169.4 782.6,168.8 782,168.2 781.3,167.9 780.5,167.5 779.7,167.2 778.7,167.1 777.8,167 776.9,166.8 775.9,167 
	774.8,167.1 773.8,167.2 772.8,167.5 771.9,167.9 771,168.3 770.2,168.9 769.3,169.5 768.4,170.3 767.6,171.1 766.8,172.1 766,173 
	764.5,175.4 763,178.1 763,219.9 748.1,219.9 748.1,177.3 748.1,176 748,174.7 747.7,173.7 747.5,172.6 747.2,171.7 746.8,170.8 
	746.3,170.1 745.8,169.4 745.2,168.8 744.6,168.2 743.9,167.9 743.1,167.5 742.2,167.2 741.4,167.1 740.3,167 739.4,166.8 
	738.4,167 737.3,167.1 736.4,167.2 735.5,167.5 734.5,167.9 733.6,168.3 732.8,168.9 732,169.6 731.2,170.3 730.4,171.1 
	729.6,172.1 728.8,173.1 727.3,175.4 725.8,178.2 725.8,219.9 710.8,219.9 710.8,155.1 723.6,155.1 724,164.1 724.9,162.7 
	725.9,161.5 726.9,160.5 728,159.4 729,158.5 730,157.6 731.2,156.9 732.3,156.2 733.5,155.6 734.8,155 736,154.7 737.4,154.3 
	738.7,154 740.2,153.9 741.7,153.8 743.2,153.6 744.8,153.8 746.3,153.9 747.7,154 749.1,154.3 750.5,154.7 751.8,155.1 
	752.9,155.6 754.1,156.2 755.1,156.9 756.2,157.7 757.1,158.5 758,159.4 758.7,160.4 759.5,161.4 760.2,162.6 760.8,163.7 
	761.7,162.4 762.8,161.3 763.8,160.1 764.9,159.1 766,158.3 767.1,157.3 768.2,156.6 769.4,156 770.6,155.5 771.8,154.9 
	773.1,154.6 774.5,154.2 775.7,154 777.1,153.8 778.6,153.8 780.1,153.6 782.4,153.8 784.8,154 786.8,154.4 788.8,155.1 790.5,156 
	792.3,156.9 793.8,158 795.2,159.3 796.3,160.8 797.4,162.4 798.3,164.3 799,166.3 799.6,168.3 800,170.7 800.3,173.1 800.4,175.8 
	800.4,219.9 "/>
<polygon id="Stroke-65" class="st0" points="710.8,155.1 723.6,155.1 724,164.1 724.9,162.7 725.9,161.5 726.9,160.5 728,159.4 
	729,158.5 730,157.6 731.2,156.9 732.3,156.2 733.5,155.6 734.8,155 736,154.7 737.4,154.3 738.7,154 740.2,153.9 741.7,153.8 
	743.2,153.6 744.8,153.8 746.3,153.9 747.7,154 749.1,154.3 750.5,154.7 751.8,155.1 752.9,155.6 754.1,156.2 755.1,156.9 
	756.2,157.7 757.1,158.5 758,159.4 758.7,160.4 759.5,161.4 760.2,162.6 760.8,163.7 761.7,162.4 762.8,161.3 763.8,160.1 
	764.9,159.1 766,158.3 767.1,157.3 768.2,156.6 769.4,156 770.6,155.5 771.8,154.9 773.1,154.6 774.5,154.2 775.7,154 777.1,153.8 
	778.6,153.8 780.1,153.6 782.4,153.8 784.8,154 786.8,154.4 788.8,155.1 790.5,156 792.3,156.9 793.8,158 795.2,159.3 796.3,160.8 
	797.4,162.4 798.3,164.3 799,166.3 799.6,168.3 800,170.7 800.3,173.1 800.4,175.8 800.4,219.9 785.5,219.9 785.5,177.3 785.5,176 
	785.3,174.7 785.1,173.7 784.9,172.6 784.5,171.7 784.2,170.8 783.7,170.1 783.1,169.4 782.6,168.8 782,168.2 781.3,167.9 
	780.5,167.5 779.7,167.2 778.7,167.1 777.8,167 776.9,166.8 775.9,167 774.8,167.1 773.8,167.2 772.8,167.5 771.9,167.9 771,168.3 
	770.2,168.9 769.3,169.5 768.4,170.3 767.6,171.1 766.8,172.1 766,173 764.5,175.4 763,178.1 763,219.9 748.1,219.9 748.1,177.3 
	748.1,176 748,174.7 747.7,173.7 747.5,172.6 747.2,171.7 746.8,170.8 746.3,170.1 745.8,169.4 745.2,168.8 744.6,168.2 
	743.9,167.9 743.1,167.5 742.2,167.2 741.4,167.1 740.3,167 739.4,166.8 738.4,167 737.3,167.1 736.4,167.2 735.5,167.5 
	734.5,167.9 733.6,168.3 732.8,168.9 732,169.6 731.2,170.3 730.4,171.1 729.6,172.1 728.8,173.1 727.3,175.4 725.8,178.2 
	725.8,219.9 710.8,219.9 "/>
<polygon id="Fill-94" class="st1" points="310.1,184.8 309.8,184.8 309.3,184.6 309,184.3 308.8,184 301.5,171.5 301.1,170.7 
	301,169.9 301.1,168.9 301.5,168.1 308.8,155.6 309,155.3 309.3,155 309.8,154.8 310.1,154.8 310.6,154.8 311,155 311.3,155.3 
	311.6,155.6 318.8,168.1 319.2,168.9 319.3,169.9 319.2,170.7 318.8,171.5 311.6,184 311.3,184.3 311,184.6 310.6,184.8 "/>
<polygon id="Stroke-95" class="st0" points="318.8,168.1 311.6,155.6 311.3,155.3 311,155 310.6,154.8 310.1,154.8 309.8,154.8 
	309.3,155 309,155.3 308.8,155.6 301.5,168.1 301.1,168.9 301,169.9 301.1,170.7 301.5,171.5 308.8,184 309,184.3 309.3,184.6 
	309.8,184.8 310.1,184.8 310.6,184.8 311,184.6 311.3,184.3 311.6,184 318.8,171.5 319.2,170.7 319.3,169.9 319.2,168.9 "/>
<polygon id="Fill-96" class="st1" points="264.7,174.8 263.6,174.7 262.5,174.6 261.4,174.5 260.3,174.3 259.2,173.9 258.2,173.6 
	257.3,173.1 256.3,172.5 255.4,171.9 254.5,171.4 253.7,170.7 252.9,169.9 252.1,169 251.4,168.2 250.7,167.3 250.1,166.4 
	246.9,160.6 246.6,160.2 246.6,159.8 246.6,159.3 246.9,159 247.1,158.6 247.4,158.4 247.8,158.2 248.2,158.2 264.8,158.2 
	265.8,158.2 267,158.3 268,158.5 269.2,158.7 270.2,159.1 271.3,159.4 272.2,159.9 273.1,160.4 274,160.9 275,161.6 275.8,162.3 
	276.6,163 277.4,163.8 278.1,164.6 278.8,165.6 279.4,166.5 282.6,172.3 282.8,172.7 282.8,173.2 282.8,173.6 282.6,174 
	282.4,174.3 282,174.6 281.7,174.7 281.2,174.8 "/>
<polygon id="Stroke-97" class="st0" points="264.8,158.2 248.2,158.2 247.8,158.2 247.4,158.4 247.1,158.6 246.9,159 246.6,159.3 
	246.6,159.8 246.6,160.2 246.9,160.6 250.1,166.4 250.7,167.3 251.4,168.2 252.1,169 252.9,169.9 253.7,170.7 254.5,171.4 
	255.4,171.9 256.3,172.5 257.3,173.1 258.2,173.6 259.2,173.9 260.3,174.3 261.4,174.5 262.5,174.6 263.6,174.7 264.7,174.8 
	281.2,174.8 281.7,174.7 282,174.6 282.4,174.3 282.6,174 282.8,173.6 282.8,173.2 282.8,172.7 282.6,172.3 279.4,166.5 
	278.8,165.6 278.1,164.6 277.4,163.8 276.6,163 275.8,162.3 275,161.6 274,160.9 273.1,160.4 272.2,159.9 271.3,159.4 270.2,159.1 
	269.2,158.7 268,158.5 267,158.3 265.8,158.2 "/>
<polygon id="Fill-98" class="st2" points="240.8,219.9 239.1,219.8 237.4,219.4 235.7,218.9 234.2,218 232.7,217.1 231.5,216 
	230.3,214.7 229.3,213.2 208.1,176.5 207.4,174.8 206.8,173.2 206.7,172.4 206.7,167.2 206.8,166.4 207.4,164.8 208.1,163.1 
	219.1,144.1 219.7,143.3 220.2,142.5 220.9,141.8 221.6,141.2 222.4,140.7 223.3,140.2 224.2,139.9 225,139.5 235.9,136.4 
	224.4,136.4 223.3,136.4 222.2,136.3 221.1,136.1 220,135.8 219,135.6 217.9,135.1 217,134.6 216.1,134.2 215.2,133.6 214.2,133 
	213.4,132.3 212.6,131.5 211.9,130.8 211.2,129.9 210.5,129 209.9,128 206.7,122.4 206.7,120.4 206.8,120.3 207.2,119.9 
	207.5,119.8 208,119.7 283.2,119.7 285,119.8 286.7,120.2 288.4,120.7 289.9,121.6 291.3,122.5 292.7,123.6 293.8,124.9 
	294.8,126.4 299.6,134.8 300,135.6 300.1,136.4 300,137.3 299.6,138.1 292.3,150.6 292.1,151 291.7,151.2 291.3,151.4 290.9,151.4 
	290.5,151.4 290.1,151.2 289.8,151 289.4,150.6 283.2,139.7 282.7,139 282.1,138.3 281.4,137.8 280.8,137.3 280.1,137 279.1,136.6 
	278.3,136.5 277.4,136.4 246.6,136.4 245.8,136.5 244.9,136.6 244.1,137 243.3,137.3 242.6,137.8 241.9,138.3 241.3,139 
	240.8,139.7 225.4,166.5 225.1,167.3 224.8,168.1 224.6,168.9 224.5,169.9 224.6,170.7 224.8,171.5 225.1,172.4 225.4,173.1 
	240.8,199.9 241.3,200.5 241.9,201.2 242.6,201.8 243.3,202.3 244.1,202.6 244.9,203 245.8,203.1 246.6,203.2 277.4,203.2 
	278.3,203.1 279.1,203 280.1,202.6 280.8,202.3 281.4,201.8 282.1,201.2 282.7,200.5 283.2,199.9 289.4,189 289.8,188.6 
	290.1,188.4 290.5,188.3 290.9,188.2 291.3,188.3 291.7,188.4 292.1,188.6 292.3,189 299.6,201.5 300,202.3 300.1,203.2 300,204 
	299.6,204.8 294.8,213.2 293.8,214.7 292.7,216 291.3,217.1 289.9,218 288.4,218.9 286.7,219.4 285,219.8 283.2,219.9 "/>
<g id="Group-101" transform="translate(0.000000, 40.101266)">
	<g id="Clip-100">
	</g>
	<polygon id="Stroke-99" class="st3" points="289.4,110.5 289.4,110.5 289.8,110.9 290.1,111.1 290.5,111.3 290.9,111.3 
		291.3,111.3 291.7,111.1 292.1,110.9 292.3,110.5 299.6,98 300,97.2 300.1,96.3 300,95.5 299.6,94.7 294.8,86.3 293.8,84.8 
		292.7,83.5 291.3,82.4 289.9,81.5 288.4,80.6 286.7,80.1 285,79.7 283.2,79.6 208,79.6 207.5,79.7 207.2,79.8 206.8,80.2 
		206.6,80.4 206.4,80.9 206.4,81.2 206.4,81.7 206.6,82.1 209.9,87.9 210.5,88.9 211.2,89.8 211.9,90.7 212.6,91.4 213.4,92.2 
		214.2,92.9 215.2,93.5 216.1,94.1 217,94.5 217.9,95 219,95.5 220,95.7 221.1,96 222.2,96.2 223.3,96.3 224.4,96.3 235.9,96.3 
		225,99.4 224.2,99.8 223.3,100.1 222.4,100.6 221.6,101.1 220.9,101.7 220.2,102.4 219.7,103.2 219.1,104 208.1,123 207.4,124.7 
		206.8,126.3 206.5,128 206.4,129.8 206.5,131.4 206.8,133.1 207.4,134.7 208.1,136.4 229.3,173.1 230.3,174.6 231.5,175.9 
		232.7,177 234.2,177.9 235.7,178.7 237.4,179.3 239.1,179.7 240.8,179.8 283.2,179.8 285,179.7 286.7,179.3 288.4,178.7 
		289.9,177.9 291.3,177 292.7,175.9 293.8,174.6 294.8,173.1 299.6,164.7 300,163.9 300.1,163.1 300,162.2 299.6,161.4 292.3,148.9 
		292.1,148.5 291.7,148.3 291.3,148.2 290.9,148.1 290.5,148.2 290.1,148.3 289.8,148.5 289.4,148.9 283.2,159.8 282.7,160.4 
		282.1,161.1 281.4,161.7 280.8,162.2 280.1,162.5 279.1,162.9 278.3,163 277.4,163.1 246.6,163.1 245.8,163 244.9,162.9 
		244.1,162.5 243.3,162.2 242.6,161.7 241.9,161.1 241.3,160.4 240.8,159.8 225.4,133 225.1,132.3 224.8,131.4 224.6,130.6 
		224.5,129.8 224.6,128.8 224.8,128 225.1,127.2 225.4,126.4 240.8,99.6 241.3,98.9 241.9,98.2 242.6,97.7 243.3,97.2 244.1,96.9 
		244.9,96.5 245.8,96.4 246.6,96.3 277.4,96.3 278.3,96.4 279.1,96.5 280.1,96.9 280.8,97.2 281.4,97.7 282.1,98.2 282.7,98.9 
		283.2,99.6 	"/>
</g>
<text transform="matrix(1 0 0 1 376.0953 110.1703)" class="st4 st5">BLOCKCYPHERMININGS</text>
</svg>
