<?xml version="1.0" encoding="utf-8"?>
<!-- Generator: Adobe Illustrator 19.0.0, SVG Export Plug-In . SVG Version: 6.00 Build 0)  -->
<svg version="1.1" id="Layer_1" xmlns="http://www.w3.org/2000/svg" xmlns:xlink="http://www.w3.org/1999/xlink" x="0px" y="0px"
	 viewBox="-15 16.7 269 268.3" style="enable-background:new -15 16.7 269 268.3;" xml:space="preserve">
<style type="text/css">
	.st0{fill:#0B8ED8;}
</style>
<title>ill/preview</title>
<desc>Created with Sketch.</desc>
<g id="chip">
	<g id="Group">
		<path id="Shape" d="M122.7,105.1V47.2c4.3-1.1,7.7-4.4,8.9-8.7s0-8.9-3.1-12c-2.3-2.3-5.4-3.6-8.7-3.6s-6.4,1.3-8.7,3.6
			c-4.8,4.8-4.9,12.6-0.1,17.5c1.5,1.6,3.4,2.7,5.5,3.2v57.9H122.7z M115.4,30.9c2.4-2.4,6.3-2.4,8.6,0c2.3,2.4,2.4,6.3,0,8.7
			s-6.3,2.4-8.6,0c-1.2-1.1-1.8-2.7-1.8-4.3C113.6,33.6,114.3,32.1,115.4,30.9z"/>
		<path id="Shape_1_" d="M97.7,73.6c4.8-4.8,4.8-12.6,0-17.4s-12.6-4.8-17.4,0c-4.8,4.8-4.8,12.6,0,17.4c1.5,1.6,3.4,2.7,5.5,3.2
			v1.6c0,6.9,5.8,12.5,12.7,12.5c3.5,0,6.5,2.8,6.5,6.3v7.9h6.2v-7.9c0-6.9-5.8-12.5-12.7-12.5c-3.5,0-6.5-2.8-6.5-6.3v-1.6
			C94.2,76.2,96.2,75.1,97.7,73.6z M84.8,60.5c2.4-2.4,6.3-2.4,8.6,0c2.4,2.4,2.4,6.3,0,8.7c-2.4,2.4-6.3,2.4-8.6,0
			c-1.2-1.1-1.8-2.7-1.8-4.3C83,63.3,83.7,61.6,84.8,60.5z"/>
		<path id="Shape_2_" d="M159.1,56.1c-4.8-4.8-12.6-4.8-17.4,0s-4.9,12.6-0.1,17.5c1.5,1.6,3.4,2.7,5.5,3.2v1.7
			c0,1.7-0.6,3.3-1.8,4.4c-1.2,1.2-2.8,1.8-4.4,1.8c-6.9,0-12.5,5.6-12.5,12.5v7.9h6.2v-7.9c0-1.7,0.6-3.3,1.8-4.4
			c1.2-1.2,2.8-1.8,4.4-1.8c6.9,0,12.5-5.6,12.5-12.5v-1.7c4.3-1.1,7.7-4.4,8.9-8.6C163.3,64,162.2,59.2,159.1,56.1L159.1,56.1z
			 M154.7,69.1c-2.4,2.4-6.2,2.4-8.6,0c-2.4-2.4-2.4-6.3,0-8.7s6.2-2.4,8.6,0C157.1,62.9,157.1,66.8,154.7,69.1z"/>
		<path id="Shape_3_" d="M226.2,142.2c-1.6,1.6-2.7,3.5-3.2,5.6h-57.8v6.2h57.8c1.4,5.4,6.3,9.2,11.9,9.3c5.6,0,10.5-3.7,12-9.1
			c1.5-5.4-0.9-11.1-5.7-13.9C236.3,137.4,230.2,138.2,226.2,142.2L226.2,142.2z M239.3,155.2c-2.4,2.4-6.2,2.4-8.6,0
			s-2.4-6.3,0-8.6c2.4-2.4,6.2-2.4,8.6,0C241.6,149,241.6,152.8,239.3,155.2L239.3,155.2z"/>
		<path id="Shape_4_" d="M179.4,129.6c0,1.7-0.7,3.3-1.8,4.4c-1.2,1.2-2.8,1.8-4.4,1.8h-7.8v6.2h7.8c6.9,0,12.5-5.6,12.5-12.5
			c0-1.7,0.7-3.3,1.8-4.4c1.2-1.2,2.8-1.8,4.4-1.8h1.6c1.6,6,7.3,9.9,13.5,9.1s10.8-6,10.8-12.3s-4.6-11.5-10.8-12.3
			c-6.2-0.8-11.9,3.1-13.5,9.1h-1.6C185,117.1,179.4,122.7,179.4,129.6z M201.1,115.9c2.4-2.4,6.3-2.4,8.6,0c2.4,2.4,2.4,6.3,0,8.7
			c-2.4,2.4-6.3,2.4-8.6,0c-1.2-1.1-1.8-2.7-1.8-4.3C199.3,118.6,200,117,201.1,115.9L201.1,115.9z"/>
		<path id="Shape_5_" d="M179.4,172.2c0,6.9,5.6,12.5,12.5,12.5h1.6c1.6,6,7.4,9.9,13.5,9.1c6.2-0.8,10.8-6,10.8-12.3
			s-4.6-11.5-10.8-12.3c-6.2-0.8-11.9,3.1-13.5,9.1h-1.6c-1.7,0-3.3-0.6-4.4-1.8c-1.2-1.2-1.8-2.8-1.8-4.4c0-6.9-5.6-12.5-12.5-12.5
			h-7.8v6.2h7.8c1.7,0,3.3,0.6,4.4,1.8C178.7,169,179.4,170.6,179.4,172.2z M201.1,177.3c2.4-2.4,6.3-2.4,8.6,0
			c2.4,2.4,2.4,6.3,0,8.7s-6.3,2.4-8.6,0c-1.2-1.1-1.8-2.7-1.8-4.3C199.3,180,200,178.4,201.1,177.3L201.1,177.3z"/>
		<path id="Shape_6_" d="M119.8,278.9c5,0,9.5-3,11.4-7.6s0.8-10-2.8-13.5c-1.6-1.6-3.6-2.7-5.7-3.2v-57.9h-6.2v57.9
			c-2.1,0.5-4,1.7-5.5,3.2c-3.5,3.6-4.5,8.9-2.6,13.5C110.2,275.9,114.8,278.9,119.8,278.9L119.8,278.9z M115.4,262.1
			c2.4-2.4,6.3-2.4,8.6,0c2.4,2.4,2.4,6.3,0,8.7c-2.4,2.4-6.3,2.4-8.6,0c-1.2-1.1-1.8-2.7-1.8-4.3S114.3,263.4,115.4,262.1z"/>
		<path id="Shape_7_" d="M141.6,228.2c-4,4-4.9,10.2-2.1,15.1c2.8,4.9,8.6,7.3,14.1,5.8s9.2-6.5,9.2-12.2c-0.1-5.7-3.9-10.6-9.4-12
			v-1.7c0-6.9-5.6-12.5-12.5-12.5c-1.7,0-3.3-0.7-4.4-1.9c-1.2-1.2-1.8-2.8-1.8-4.4v-7.9h-6.2v7.9c0,6.9,5.6,12.5,12.5,12.5
			c1.7,0,3.2,0.7,4.4,1.8c1.2,1.2,1.8,2.8,1.8,4.4v1.7C145,225.6,143.1,226.7,141.6,228.2L141.6,228.2z M154.7,241.3
			c-2.4,2.4-6.2,2.4-8.6,0c-2.4-2.4-2.4-6.3,0-8.7s6.2-2.4,8.6,0C157.1,235,157.1,238.9,154.7,241.3L154.7,241.3z"/>
		<path id="Shape_8_" d="M98.5,217.1c6.9,0,12.7-5.6,12.7-12.5v-7.9H105v7.9c0,3.5-3,6.3-6.5,6.3c-6.9,0-12.7,5.6-12.7,12.5v1.6
			c-2.1,0.6-4,1.7-5.5,3.2c-3.6,3.5-4.6,8.9-2.7,13.5s6.4,7.7,11.4,7.7s9.5-3,11.4-7.7s0.8-10-2.7-13.5c-1.6-1.6-3.6-2.7-5.7-3.2
			v-1.6C92,219.9,95.1,217.1,98.5,217.1z M93.4,241.3c-2.4,2.4-6.2,2.4-8.6,0s-2.4-6.3,0-8.7s6.2-2.4,8.6,0
			C95.8,235,95.8,238.9,93.4,241.3L93.4,241.3z"/>
		<path id="Shape_9_" d="M12.9,159.6c1.6-1.6,2.7-3.5,3.2-5.6h57.8v-6.2H16.1c-1.4-5.4-6.3-9.2-11.9-9.2s-10.5,3.7-12,9.1
			c-1.5,5.4,0.9,11.1,5.7,13.9C2.8,164.4,8.9,163.6,12.9,159.6L12.9,159.6z M-0.2,146.6c2.4-2.4,6.3-2.4,8.6,0s2.4,6.3,0,8.7
			s-6.3,2.4-8.6,0c-1.2-1.1-1.8-2.7-1.8-4.3C-2,149.3-1.3,147.7-0.2,146.6z"/>
		<path id="Shape_10_" d="M53.5,172.2c0,1.7-0.7,3.3-1.8,4.4c-1.2,1.2-2.8,1.8-4.4,1.8h-1.6c-1.6-6-7.3-9.9-13.5-9.1
			c-6.2,0.8-10.8,6-10.8,12.3s4.6,11.5,10.8,12.3c6.2,0.8,11.9-3.1,13.5-9.1h1.6c6.9,0,12.5-5.6,12.5-12.5c0-1.7,0.7-3.3,1.8-4.4
			c1.2-1.2,2.8-1.8,4.4-1.8h7.8v-6.2H66C59.1,159.7,53.5,165.3,53.5,172.2L53.5,172.2z M38,185.9c-2.4,2.4-6.2,2.4-8.6,0
			s-2.4-6.3,0-8.7s6.2-2.4,8.6,0C40.3,179.7,40.3,183.5,38,185.9L38,185.9z"/>
		<path id="Shape_11_" d="M33.6,132.6c5.6,0,10.5-3.8,11.9-9.2h1.6c1.7,0,3.3,0.6,4.4,1.8c1.2,1.2,1.8,2.8,1.8,4.4
			c0,6.9,5.6,12.5,12.5,12.5h7.8v-6.2h-7.8c-1.7,0-3.3-0.6-4.4-1.8c-1.2-1.2-1.8-2.8-1.8-4.4c0-6.9-5.6-12.5-12.5-12.5h-1.6
			c-1.6-6.2-7.7-10.2-14-9.1s-10.8,6.8-10.2,13.2C21.9,127.6,27.2,132.6,33.6,132.6z M29.3,115.9c2.4-2.4,6.3-2.4,8.6,0
			c2.4,2.4,2.4,6.3,0,8.7c-2.4,2.4-6.3,2.4-8.6,0c-1.2-1.1-1.8-2.7-1.8-4.3C27.5,118.6,28.2,117,29.3,115.9z"/>
	</g>
</g>
<path id="Shape_12_" class="st0" d="M167.4,119.6c0-8.1-6.5-14.7-14.6-14.7H87.6c-8.1,0-14.6,6.6-14.6,14.7V185
	c0,8.1,6.5,14.7,14.6,14.7h65.2c8.1,0,14.6-6.6,14.6-14.7V119.6z M161.2,185c0,4.6-3.7,8.4-8.4,8.4H87.6c-4.6,0-8.4-3.8-8.4-8.4
	v-65.4c0-4.6,3.7-8.4,8.4-8.4h65.2c4.6,0,8.4,3.8,8.4,8.4V185z"/>
<path id="Shape_13_" class="st0" d="M150.2,123.5c0-1.7-1.4-3.2-3.1-3.2H91.6c-1.7,0-3.1,1.4-3.1,3.2v55.7c0,1.7,1.4,3.2,3.1,3.2
	h55.5c1.7,0,3.1-1.4,3.1-3.2V123.5z M94.7,126.7h49.2v49.4H94.7V126.7z"/>
</svg>
